<svg xmlns="http://www.w3.org/2000/svg" width="109" height="37" viewBox="0 0 109 37" version="1.1"><title>imoto logo</title><g stroke="none" stroke-width="1" fill="none" fill-rule="evenodd"><g fill="#424242"><path d="M0.1 36.6L2.5 9.2 9.7 9.2 7.3 36.6 0.1 36.6 0.1 36.6ZM2.8 6.4L3.3 0 10.5 0 10 6.4 2.8 6.4 2.8 6.4ZM9.8 36.6L11.6 16.2C11.8 14.1 12.6 12.4 14 11 15.4 9.7 17.4 9.1 20 9.1L22.4 9.1C25.1 9.1 27 9.7 28.1 11L28.3 11C29.6 9.7 31.6 9.1 34.2 9.1L36.6 9.1C38.8 9.1 40.6 9.7 41.8 11 43.1 12.3 43.8 13.8 43.8 15.7 43.8 16.6 43.7 17.6 43.6 18.9L42.1 36.6 34.9 36.6 36.5 18.1C36.5 17.7 36.5 17.3 36.5 17.1 36.5 16.6 36.3 16.2 35.9 16 35.7 15.9 35.1 15.8 34.2 15.8 33.4 15.8 32.8 15.8 32.5 15.8 31.7 15.9 31.3 16.4 31.3 17.4L29.5 36.6 22.3 36.6 24 18.1C24 17.7 24 17.3 24 17.1 24 16.6 23.8 16.2 23.4 16 23.1 15.9 22.5 15.8 21.6 15.8 20.8 15.8 20.3 15.8 19.9 15.8 19.2 15.9 18.8 16.4 18.7 17.4L17 36.6 9.8 36.6 9.8 36.6ZM45.4 26.8L46.3 16.2C46.5 14.3 47.1 12.8 48.1 11.6 49.1 10.3 50.4 9.6 52 9.2 53 9 55 8.9 57.9 8.9 60.8 8.9 62.8 9.1 63.8 9.5 66.5 10.4 67.9 12.5 67.9 15.6 67.9 16.3 67.8 17.4 67.7 18.7L66.7 29.4C66.6 31.3 66 32.8 65 34 64 35.2 62.7 36 61.1 36.3 60.1 36.5 58.2 36.6 55.2 36.6 52.3 36.6 50.3 36.5 49.3 36.1 46.6 35.1 45.2 33.1 45.2 30 45.2 29.2 45.3 28.2 45.4 26.8L45.4 26.8 45.4 26.8ZM52.5 28.7C52.5 29.2 52.7 29.6 53.1 29.7 53.4 29.9 54.3 29.9 55.8 29.9 57 29.9 57.8 29.9 58.4 29.8 59.1 29.7 59.6 29.2 59.6 28.4L60.5 18.5C60.6 17.9 60.6 17.3 60.6 16.8 60.6 16.3 60.4 16 60 15.8 59.7 15.7 58.8 15.6 57.4 15.6 56.2 15.6 55.3 15.7 54.7 15.7 54 15.8 53.6 16.3 53.5 17.2L52.6 27C52.6 27.7 52.5 28.3 52.5 28.7L52.5 28.7 52.5 28.7ZM86.3 26.8L87.2 16.2C87.4 14.3 87.9 12.8 89 11.6 90 10.3 91.3 9.6 92.9 9.2 93.9 9 95.8 8.9 98.8 8.9 101.7 8.9 103.7 9.1 104.7 9.5 107.4 10.4 108.8 12.5 108.8 15.6 108.8 16.3 108.7 17.4 108.6 18.7L107.6 29.4C107.5 31.3 106.9 32.8 105.9 34 104.9 35.2 103.6 36 102 36.3 101 36.5 99 36.6 96.1 36.6 93.2 36.6 91.2 36.5 90.2 36.1 87.5 35.1 86.1 33.1 86.1 30 86.1 29.2 86.2 28.2 86.3 26.8L86.3 26.8 86.3 26.8ZM93.4 28.7C93.4 29.2 93.6 29.6 94 29.7 94.3 29.9 95.2 29.9 96.7 29.9 97.9 29.9 98.7 29.9 99.3 29.8 100 29.7 100.4 29.2 100.5 28.4L101.4 18.5C101.4 17.9 101.5 17.3 101.5 16.8 101.5 16.3 101.3 16 100.9 15.8 100.6 15.7 99.7 15.6 98.3 15.6 97 15.6 96.2 15.7 95.6 15.7 94.9 15.8 94.4 16.3 94.4 17.2L93.5 27C93.4 27.7 93.4 28.3 93.4 28.7L93.4 28.7 93.4 28.7ZM69.5 26.5L71.6 2.8 78.7 2.8 78.2 9.1 85.4 9.1 84.7 15.8 77.6 15.8 76.6 27.4C76.6 27.8 76.5 28.2 76.5 28.7 76.5 29.1 76.7 29.5 77.2 29.7 77.5 29.8 78.3 29.9 79.8 29.9L83.6 29.9 83 36.6 78.8 36.6C76.3 36.6 74.6 36.5 73.6 36.2 70.7 35.3 69.3 33.2 69.3 29.9 69.3 29 69.4 27.9 69.5 26.5L69.5 26.5 69.5 26.5Z"/></g></g></svg>